<?xml version="1.0" standalone="no"?>
<!DOCTYPE svg PUBLIC "-//W3C//DTD SVG 20010904//EN"
 "http://www.w3.org/TR/2001/REC-SVG-20010904/DTD/svg10.dtd">
<svg version="1.0" xmlns="http://www.w3.org/2000/svg"
 width="198.000000pt" height="198.000000pt" viewBox="0 0 198.000000 198.000000"
 preserveAspectRatio="xMidYMid meet">
<metadata>
Created by potrace 1.14, written by Peter Selinger 2001-2017
</metadata>
<g transform="translate(0.000000,198.000000) scale(0.100000,-0.100000)"
fill="#000000" stroke="none">
<path d="M518 1634 c-59 -18 -110 -67 -126 -121 -8 -25 -12 -110 -12 -230 0
-219 10 -265 67 -312 49 -40 101 -51 245 -51 83 0 128 -4 136 -12 8 -8 12 -49
12 -118 l0 -106 -32 -12 c-18 -6 -46 -23 -63 -37 l-30 -24 60 -1 c51 -1 56 -3
35 -11 -33 -14 -120 -6 -131 12 -5 8 -9 47 -9 87 l0 72 -146 0 -147 0 5 -113
c7 -146 26 -193 94 -233 l49 -29 218 -3 217 -3 58 27 c46 22 72 27 137 28 66
1 91 6 137 29 103 50 98 57 -47 57 l-127 0 6 31 c3 17 6 35 6 40 0 5 105 9
233 9 l232 1 -30 24 c-16 14 -55 35 -85 46 -69 26 -165 22 -227 -10 -23 -11
-44 -21 -47 -21 -4 0 -36 76 -36 86 0 3 4 3 8 0 4 -2 14 -1 21 3 11 7 9 20 -8
65 l-21 56 24 0 25 0 -25 62 c-13 34 -24 63 -24 65 0 2 9 3 20 3 26 0 25 8 -5
82 -14 34 -25 64 -25 67 0 3 54 -48 120 -114 102 -102 120 -116 120 -95 0 42
-45 125 -86 159 -22 17 -59 37 -83 44 -41 11 -32 12 114 17 l158 5 -54 30
c-71 39 -160 41 -229 6 l-45 -23 58 59 c58 59 59 60 106 55 43 -4 52 -1 83 27
63 55 57 148 -14 191 -40 24 -69 25 -114 4 -46 -22 -68 -65 -61 -121 4 -38 0
-51 -29 -94 -18 -28 -36 -66 -40 -87 l-7 -36 -15 49 c-8 28 -17 106 -21 175
-9 170 -34 212 -144 245 -70 21 -391 20 -459 -1z m310 -206 c7 -7 12 -42 12
-85 l0 -73 98 0 98 0 49 -50 48 -49 -44 22 c-60 30 -158 30 -216 -1 -23 -12
-44 -26 -48 -32 -4 -7 46 -10 147 -11 117 -1 145 -3 119 -11 -18 -5 -44 -16
-56 -24 -17 -11 -29 -12 -49 -4 -15 5 -87 10 -159 10 -73 0 -139 5 -147 10
-12 7 -16 36 -18 132 -2 70 1 135 7 151 10 26 14 27 79 27 40 0 73 -5 80 -12z
m300 -358 l-23 -52 -14 26 c-14 25 -13 28 20 62 18 19 35 31 37 26 1 -5 -8
-33 -20 -62z m12 -94 c0 -8 -4 -18 -10 -21 -5 -3 -10 3 -10 14 0 12 5 21 10
21 6 0 10 -6 10 -14z"/>
<path d="M1360 425 c33 -19 91 -19 116 0 17 13 11 14 -61 14 -74 0 -78 -1 -55
-14z"/>
<path d="M1040 375 c0 -12 87 -45 118 -45 34 0 97 24 108 41 3 5 -47 9 -110 9
-64 0 -116 -2 -116 -5z"/>
</g>
</svg>
